<svg xmlns="http://www.w3.org/2000/svg" viewBox="0 0 32 32" fill="none">
  <rect width="32" height="32" rx="8" fill="url(#g)"/>
  <defs>
    <linearGradient id="g" x1="0" y1="0" x2="32" y2="32" gradientUnits="userSpaceOnUse">
      <stop stop-color="#4f46e5"/>
      <stop offset="1" stop-color="#a855f7"/>
    </linearGradient>
  </defs>
  <!-- Sparkle icon -->
  <path d="M16 6l1.5 4.5L22 12l-4.5 1.5L16 18l-1.5-4.5L10 12l4.5-1.5L16 6z" fill="white" opacity="0.95"/>
  <path d="M22 4l.8 2.2L25 7l-2.2.8L22 10l-.8-2.2L19 7l2.2-.8L22 4z" fill="white" opacity="0.6"/>
  <path d="M10 20l.6 1.8 1.8.6-1.8.6L10 25l-.6-1.8L7.6 22.4l1.8-.6L10 20z" fill="white" opacity="0.5"/>
</svg>
